<mxfile host="app.diagrams.net" modified="2022-08-02T02:48:15.532Z" agent="5.0 (Windows NT 10.0; Win64; x64) AppleWebKit/537.36 (KHTML, like Gecko) Chrome/103.0.0.0 Safari/537.36" etag="N83XpdMAQAHOytNCMnvs" version="20.2.2" type="github">
  <diagram id="rMu3lgwSiOTMP_D21qfq" name="第 1 页">
    <mxGraphModel dx="1043" dy="581" grid="1" gridSize="10" guides="1" tooltips="1" connect="1" arrows="1" fold="1" page="1" pageScale="1" pageWidth="827" pageHeight="1169" math="0" shadow="0">
      <root>
        <mxCell id="0" />
        <mxCell id="1" parent="0" />
        <mxCell id="jb5VDlvWncd-CbmeqwbP-1" value="&lt;font style=&quot;font-size: 20px;&quot;&gt;场景排序&lt;/font&gt;" style="rounded=1;whiteSpace=wrap;html=1;" vertex="1" parent="1">
          <mxGeometry x="80" y="80" width="120" height="60" as="geometry" />
        </mxCell>
        <mxCell id="jb5VDlvWncd-CbmeqwbP-2" value="&lt;font style=&quot;font-size: 20px;&quot;&gt;场景删除&lt;br&gt;&lt;/font&gt;" style="rounded=1;whiteSpace=wrap;html=1;" vertex="1" parent="1">
          <mxGeometry x="80" y="160" width="120" height="60" as="geometry" />
        </mxCell>
        <mxCell id="jb5VDlvWncd-CbmeqwbP-5" value="&lt;font style=&quot;font-size: 20px;&quot;&gt;加载场景&lt;/font&gt;" style="rounded=1;whiteSpace=wrap;html=1;" vertex="1" parent="1">
          <mxGeometry x="80" y="400" width="120" height="60" as="geometry" />
        </mxCell>
        <mxCell id="jb5VDlvWncd-CbmeqwbP-6" value="&lt;font style=&quot;font-size: 20px;&quot;&gt;新增场景&lt;/font&gt;" style="rounded=1;whiteSpace=wrap;html=1;" vertex="1" parent="1">
          <mxGeometry x="80" y="320" width="120" height="60" as="geometry" />
        </mxCell>
        <mxCell id="jb5VDlvWncd-CbmeqwbP-7" value="&lt;font style=&quot;font-size: 20px;&quot;&gt;A/B镜头切换&lt;br&gt;&lt;/font&gt;" style="rounded=1;whiteSpace=wrap;html=1;" vertex="1" parent="1">
          <mxGeometry x="80" y="240" width="120" height="60" as="geometry" />
        </mxCell>
      </root>
    </mxGraphModel>
  </diagram>
</mxfile>
